<?xml version="1.0"?>

<svg width="100%" height="100%" viewBox="0 0 6875 4500" version="1.1" xmlns="http://www.w3.org/2000/svg" xmlns:xlink="http://www.w3.org/1999/xlink" xml:space="preserve" xmlns:serif="http://www.serif.com/" style="fill-rule:evenodd;clip-rule:evenodd;stroke-linejoin:round;stroke-miterlimit:2;">
    <g id="Capa-1" transform="matrix(11.472594,0,0,11.472594,-11185.681721,-3945.08053)">
        <g>
            <clipPath id="_clip1">
                <rect x="965.449" y="344.205" width="609.725" height="391.59" clip-rule="nonzero"></rect>
            </clipPath>
            <g clip-path="url(#_clip1)">
                <g opacity="0.07">
                    <g>
                        <g transform="matrix(1,0,0,1,1273.3696,396.9927)">
                            <path d="M0,280.689L-10.656,270.034L160.485,98.891L82.907,21.313L-74.632,178.852L-85.289,168.197L82.907,0L181.798,98.891L0,280.689Z" style="fill-rule:nonzero;"></path>
                        </g>
                        <g transform="matrix(-0.707107,-0.707107,-0.707107,0.707107,1319.692776,496.851076)">
                            <rect x="-68.333" y="28.304" width="86.299" height="15.069"></rect>
                        </g>
                        <g transform="matrix(1,0,0,1,1249.0981,396.993)">
                            <path d="M0,267.073L-168.182,98.891L-69.291,0L10.666,79.958L0.009,90.613L-69.291,21.313L-146.87,98.891L10.656,256.418L0,267.073Z" style="fill-rule:nonzero;"></path>
                        </g>
                        <g transform="matrix(1,0,0,1,1273.3696,573.4405)">
                            <path d="M0,280.688L-10.656,270.033L160.485,98.892L82.907,21.313L-74.632,178.851L-85.289,168.196L82.907,0L181.798,98.892L0,280.688Z" style="fill-rule:nonzero;"></path>
                        </g>
                        <g transform="matrix(-0.707107,-0.707107,-0.707107,0.707107,1319.692776,673.299076)">
                            <rect x="-68.333" y="28.304" width="86.299" height="15.069"></rect>
                        </g>
                        <g transform="matrix(1,0,0,1,1249.0981,573.4409)">
                            <path d="M0,267.073L-168.182,98.891L-69.291,0L10.666,79.958L0.009,90.613L-69.291,21.312L-146.87,98.891L10.656,256.418L0,267.073Z" style="fill-rule:nonzero;"></path>
                        </g>
                        <g transform="matrix(1,0,0,1,1273.3696,220.5323)">
                            <path d="M0,280.688L-10.656,270.033L160.485,98.892L82.907,21.313L-74.632,178.852L-85.289,168.197L82.907,0L181.798,98.892L0,280.688Z" style="fill-rule:nonzero;"></path>
                        </g>
                        <g transform="matrix(-0.707107,-0.707107,-0.707107,0.707107,1319.692776,320.390876)">
                            <rect x="-68.333" y="28.304" width="86.299" height="15.069"></rect>
                        </g>
                        <g transform="matrix(1,0,0,1,1249.0981,220.5327)">
                            <path d="M0,267.073L-168.182,98.891L-69.291,0L10.666,79.958L0.009,90.613L-69.291,21.313L-146.87,98.891L10.656,256.418L0,267.073Z" style="fill-rule:nonzero;"></path>
                        </g>
                        <g transform="matrix(1,0,0,1,1626.3085,396.9927)">
                            <path d="M0,280.689L-10.656,270.034L160.485,98.891L82.907,21.313L-74.632,178.852L-85.288,168.197L82.907,0L181.798,98.891L0,280.689Z" style="fill-rule:nonzero;"></path>
                        </g>
                        <g transform="matrix(1,0,0,1,1602.037,396.993)">
                            <path d="M0,267.073L-168.182,98.891L-69.291,0L10.666,79.958L0.009,90.613L-69.291,21.313L-146.87,98.891L10.656,256.418L0,267.073Z" style="fill-rule:nonzero;"></path>
                        </g>
                        <g transform="matrix(1,0,0,1,1626.3085,573.4405)">
                            <path d="M0,280.688L-10.656,270.033L160.485,98.892L82.907,21.313L-74.632,178.851L-85.288,168.196L82.907,0L181.798,98.892L0,280.688Z" style="fill-rule:nonzero;"></path>
                        </g>
                        <g transform="matrix(1,0,0,1,1602.037,573.4409)">
                            <path d="M0,267.073L-168.182,98.891L-69.291,0L10.666,79.958L0.009,90.613L-69.291,21.312L-146.87,98.891L10.656,256.418L0,267.073Z" style="fill-rule:nonzero;"></path>
                        </g>
                        <g transform="matrix(1,0,0,1,1626.3085,220.5323)">
                            <path d="M0,280.688L-10.656,270.033L160.485,98.892L82.907,21.313L-74.632,178.852L-85.288,168.197L82.907,0L181.798,98.892L0,280.688Z" style="fill-rule:nonzero;"></path>
                        </g>
                        <g transform="matrix(1,0,0,1,1602.037,220.5327)">
                            <path d="M0,267.073L-168.182,98.891L-69.291,0L10.666,79.958L0.009,90.613L-69.291,21.313L-146.87,98.891L10.656,256.418L0,267.073Z" style="fill-rule:nonzero;"></path>
                        </g>
                        <g transform="matrix(1,0,0,1,920.4308,396.9927)">
                            <path d="M0,280.689L-10.656,270.034L160.485,98.891L82.907,21.313L-74.632,178.852L-85.289,168.197L82.907,0L181.798,98.891L0,280.689Z" style="fill-rule:nonzero;"></path>
                        </g>
                        <g transform="matrix(-0.707107,-0.707107,-0.707107,0.707107,966.753976,496.851076)">
                            <rect x="-68.333" y="28.304" width="86.299" height="15.069"></rect>
                        </g>
                        <g transform="matrix(1,0,0,1,920.4308,573.4405)">
                            <path d="M0,280.688L-10.656,270.033L160.485,98.892L82.907,21.313L-74.632,178.851L-85.289,168.196L82.907,0L181.798,98.892L0,280.688Z" style="fill-rule:nonzero;"></path>
                        </g>
                        <g transform="matrix(-0.707107,-0.707107,-0.707107,0.707107,966.753976,673.299076)">
                            <rect x="-68.333" y="28.304" width="86.299" height="15.069"></rect>
                        </g>
                        <g transform="matrix(1,0,0,1,920.4308,220.5323)">
                            <path d="M0,280.688L-10.656,270.033L160.485,98.892L82.907,21.313L-74.632,178.852L-85.289,168.197L82.907,0L181.798,98.892L0,280.688Z" style="fill-rule:nonzero;"></path>
                        </g>
                        <g transform="matrix(-0.707107,-0.707107,-0.707107,0.707107,966.753976,320.390876)">
                            <rect x="-68.333" y="28.304" width="86.299" height="15.069"></rect>
                        </g>
                    </g>
                </g>
            </g>
        </g>
    </g>
</svg>