<svg xmlns="http://www.w3.org/2000/svg" viewBox="264 463 855 200"><g>
&#x9;<path fill="#FFFFFF" d="M860.98,646.67c1.18,0,1.85-0.61,1.85-1.52c0-0.94-0.67-1.55-1.85-1.55h-2.02v3.07H860.98z M856.5,641.56h4.89&#xA;&#x9;&#x9;c2.36,0,3.91,1.42,3.91,3.59c0,1.36-0.77,2.46-1.92,3.04l3.4,5.4h-2.93l-2.97-4.91h-1.92v4.91h-2.46V641.56z M860.48,656.76&#xA;&#x9;&#x9;c5.46,0,9.5-3.88,9.5-9.18c0-5.3-4.04-9.18-9.5-9.18c-5.42,0-9.44,3.88-9.44,9.18C851.04,652.88,855.05,656.76,860.48,656.76&#xA;&#x9;&#x9; M860.48,636c6.94,0,12.1,4.91,12.1,11.58c0,6.66-5.16,11.58-12.1,11.58s-12.06-4.95-12.06-11.58&#xA;&#x9;&#x9;C848.41,640.92,853.54,636,860.48,636"></path>
&#x9;<path fill="#FFFFFF" d="M264.91,527.6h15.17c1.32,12.02,9.89,17.84,21.1,17.84c10.16,0,17.28-4.81,17.28-12.28c0-20.88-50.65-9.37-50.65-41.26&#xA;&#x9;&#x9;c0-14.68,13.32-24.3,31-24.3c19.39,0,31.92,9.87,34.03,26.32h-15.17c-1.71-8.48-8.84-13.54-18.86-13.54&#xA;&#x9;&#x9;c-9.5,0-15.56,4.18-15.56,10.88c0,17.97,50.78,6.71,50.78,41.01c0,15.69-13.72,25.94-32.84,25.94&#xA;&#x9;&#x9;C281.14,558.23,266.63,547.47,264.91,527.6"></path>
&#x9;<path fill="#FFFFFF" d="M382.04,508.75c9.76,0,16.09-5.44,16.09-13.79c0-8.23-6.33-13.54-16.09-13.54h-19.92v27.34H382.04z M346.69,468.63h36.93&#xA;&#x9;&#x9;c18.07,0,29.94,10.5,29.94,26.32c0,16.07-11.87,26.45-29.94,26.45h-21.5v35.82h-15.43V468.63z"></path>
&#x9;<path fill="#FFFFFF" d="M463.42,545.45c17.94,0,30.73-13.8,30.73-32.53s-12.79-32.53-30.73-32.53c-17.94,0-30.86,13.67-30.86,32.53&#xA;&#x9;&#x9;C432.56,531.78,445.49,545.45,463.42,545.45 M417,512.92c0-26.2,19.65-45.31,46.43-45.31c26.51,0,46.3,19.11,46.3,45.31&#xA;&#x9;&#x9;s-19.79,45.31-46.3,45.31C436.65,558.23,417,539.12,417,512.92"></path>
&#x9;<path fill="#FFFFFF" d="M552.59,506.72c9.63,0,15.83-5.19,15.83-12.66c0-7.59-6.2-12.66-15.83-12.66h-17.15v25.31H552.59z M519.88,468.63h35.35&#xA;&#x9;&#x9;c17.01,0,28.62,10.25,28.62,25.44c0,10.38-6.2,19.24-16.36,23.16l25.46,39.99h-18.07L551.8,519.5h-16.36v37.72h-15.57V468.63z"></path>
&#x9;<polygon fill="#FFFFFF" points="590.58,468.63 590.58,481.41 618.94,481.41 618.94,557.22 634.5,557.22 634.5,481.41 662.86,481.41 662.86,468.63 &#xA;&#x9;&#x9;&#x9;"></polygon>
&#x9;<path fill="#FFFFFF" d="M665.9,527.6h15.17c1.32,12.02,9.89,17.84,21.1,17.84c10.16,0,17.28-4.81,17.28-12.28c0-20.88-50.65-9.37-50.65-41.26&#xA;&#x9;&#x9;c0-14.68,13.32-24.3,31-24.3c19.39,0,31.92,9.87,34.03,26.32h-15.17c-1.71-8.48-8.84-13.54-18.86-13.54&#xA;&#x9;&#x9;c-9.5,0-15.56,4.18-15.56,10.88c0,17.97,50.78,6.71,50.78,41.01c0,15.69-13.72,25.94-32.84,25.94&#xA;&#x9;&#x9;C682.12,558.23,667.61,547.47,665.9,527.6"></path>
&#x9;<path fill="#FFFFFF" d="M394.18,570.56h21.9l20.97,48.47c5.8,13.42,7.91,22.15,7.91,22.15s2.11-8.73,7.65-21.52l21.24-49.11h21.37v88.59h-15.56&#xA;&#x9;&#x9;V612.2c0-14.43,0.79-23.41,0.79-23.41s-2.9,8.61-8.44,21.39l-21.1,48.98h-12.4l-20.97-48.35c-5.8-13.42-8.57-22.02-8.57-22.02&#xA;&#x9;&#x9;s0.79,8.99,0.79,22.91v47.46h-15.56V570.56z"></path>
&#x9;<path fill="#FFFFFF" d="M547.98,588.91l14.9,36.7h-29.94L547.98,588.91z M539.4,570.56l-36.14,88.59h16.22l8.31-20.88h40.1l8.31,20.88h16.62&#xA;&#x9;&#x9;l-35.88-88.59H539.4z"></path>
&#x9;<polygon fill="#FFFFFF" points="590.58,570.56 590.58,583.34 618.94,583.34 618.94,659.15 634.5,659.15 634.5,583.34 662.86,583.34 662.86,570.56 &#xA;&#x9;&#x9;&#x9;"></polygon>
&#x9;<path fill="#FFFFFF" d="M663.79,614.86c0-28.35,19.39-45.31,45.64-45.31c22.16,0,37.46,13.04,39.31,31.13H733.3&#xA;&#x9;&#x9;c-1.85-10.76-11.08-18.35-23.87-18.35c-17.54,0-30.07,12.15-30.07,32.53c0,20.38,12.66,32.53,30.07,32.53&#xA;&#x9;&#x9;c12.79,0,22.55-8.35,24.27-19.24h15.43c-2.11,17.97-17.28,32.02-39.7,32.02C683.44,660.17,663.79,643.33,663.79,614.86"></path>
&#x9;<polygon fill="#FFFFFF" points="817.72,570.56 817.72,606.38 773.4,606.38 773.4,570.56 757.83,570.56 757.83,659.15 773.4,659.15 773.4,619.16 &#xA;&#x9;&#x9;817.72,619.16 817.72,659.15 833.28,659.15 833.28,570.56 &#x9;"></polygon>
&#x9;<g class="st2">
&#x9;&#x9;<g>
&#x9;&#x9;&#x9;<polygon fill="#018c29" points="928.4,582.46 927.45,581.55 879.63,535.66 927.45,489.77 971.72,532.24 982.74,521.67 &#xA;&#x9;&#x9;&#x9;&#x9;927.45,468.63 857.59,535.66 971.72,645.17 982.74,634.6 &#x9;&#x9;&#x9;"></polygon>
&#x9;&#x9;</g>
&#x9;</g>
&#x9;<g class="st2">
&#x9;&#x9;<g>
&#x9;&#x9;&#x9;<polygon fill="#018c29" points="1000.87,539.07 989.86,549.65 1030.56,588.71 1041.58,578.14 &#x9;&#x9;&#x9;"></polygon>
&#x9;&#x9;</g>
&#x9;</g>
&#x9;<polygon fill="#FFFFFF" points="995.1,516.65 986.3,525.09 980.61,530.54 967.03,543.58 931.01,578.14 942.03,588.71 1045.14,489.77 &#xA;&#x9;&#x9;1092.97,535.66 1053.94,573.11 1053.94,573.11 1025.87,600.04 999.68,625.17 975.28,648.58 986.3,659.15 997.31,648.58 &#xA;&#x9;&#x9;1115,535.66 1045.14,468.63 &#x9;"></polygon>
</g>
</svg>